<svg xmlns="http://www.w3.org/2000/svg" xmlns:xlink="http://www.w3.org/1999/xlink" xmlns:lucid="lucid" width="1034" height="239"><g transform="translate(-908 -401)" lucid:page-tab-id="pE3H0Z67kFk7"><path d="M780 206.86h1320v185.28H780z" fill="#fff" fill-opacity="0"/><use xlink:href="#a" transform="matrix(1,0,0,1,785,211.85509138381195) translate(193.30000000000018 112.99999999999997)"/><path d="M760 427.75h1320V600H760z" fill="#fff" fill-opacity="0"/><use xlink:href="#b" transform="matrix(1,0,0,1,765,432.75) translate(193.30000000000018 105.46874999999997)"/><defs><path fill="#40337f" d="M10 0v-115h123l222-187-245-201H27v-115h359v115h-27l143 117 139-117h-50v-115h359v115H826L607-324l278 209h84V0H574v-115h27L455-234 327-115h54V0H10" id="c"/><path fill="#40337f" d="M40-379v-240h882v240H784v-125H584v380h132V0H249v-124h129v-380H178v125H40" id="d"/><path fill="#40337f" d="M40 0v-124h104v-380H40v-115h781v240H683v-125H351v129h228v115H351v136h332v-117h138V0H40" id="e"/><path fill="#40337f" d="M20-313c0-217 220-325 499-325 102 0 203 37 260 72v-54h139v297H779c17-125-107-186-259-186s-256 60-256 196c0 142 117 204 255 204 124 0 220-41 260-138h145c0 101-95 258-404 258C214 11 20-77 20-313" id="f"/><path fill="#333" d="M166-277v-81h268v81H166" id="g"/><path fill="#ae374a" d="M40-379v-240h882v240H784v-125H584v380h132V0H249v-124h129v-380H178v125H40" id="h"/><path fill="#ae374a" d="M40-504v-115h419v115H351v284c0 75 50 109 169 109 89 0 176 0 176-110v-283H592v-115h371v115H855v308c0 94-78 216-340 216-261 0-371-123-371-216v-308H40" id="i"/><path fill="#ae374a" d="M264-313c0 142 117 204 255 204 155 0 257-63 257-204 0-129-106-196-256-196-152 0-256 60-256 196zm-244 0c0-217 220-325 499-325s500 108 500 325c0 236-193 324-499 324S20-77 20-313" id="j"/><path fill="#ae374a" d="M522-619c156 0 298 17 298 166 0 116-89 160-192 178l145 151h110V0H623L400-264h-49v140h112V0H44v-124h100v-380H40v-115h482zM351-369h93c146 0 164-14 164-68 1-77-64-68-129-68-43 0-85 1-128 1v135" id="k"/><g id="a"><use transform="matrix(0.09999999999999996,0,0,0.09999999999999996,0,0)" xlink:href="#c"/><use transform="matrix(0.09999999999999996,0,0,0.09999999999999996,97.89999999999996,0)" xlink:href="#d"/><use transform="matrix(0.09999999999999996,0,0,0.09999999999999996,194.0999999999999,0)" xlink:href="#e"/><use transform="matrix(0.09999999999999996,0,0,0.09999999999999996,280.1999999999999,0)" xlink:href="#f"/><use transform="matrix(0.09999999999999996,0,0,0.09999999999999996,374.59999999999985,0)" xlink:href="#g"/><use transform="matrix(0.09999999999999996,0,0,0.09999999999999996,434.49999999999983,0)" xlink:href="#h"/><use transform="matrix(0.09999999999999996,0,0,0.09999999999999996,530.6999999999998,0)" xlink:href="#i"/><use transform="matrix(0.09999999999999996,0,0,0.09999999999999996,630.9999999999998,0)" xlink:href="#h"/><use transform="matrix(0.09999999999999996,0,0,0.09999999999999996,727.1999999999997,0)" xlink:href="#j"/><use transform="matrix(0.09999999999999996,0,0,0.09999999999999996,831.0999999999997,0)" xlink:href="#k"/></g><path fill="#40337f" d="M40-504v-115h419v115H351v284c0 75 50 109 169 109 89 0 176 0 176-110v-283H592v-115h371v115H855v308c0 94-78 216-340 216-261 0-371-123-371-216v-308H40" id="l"/><path fill="#40337f" d="M264-313c0 142 117 204 255 204 155 0 257-63 257-204 0-129-106-196-256-196-152 0-256 60-256 196zm-244 0c0-217 220-325 499-325s500 108 500 325c0 236-193 324-499 324S20-77 20-313" id="m"/><path fill="#40337f" d="M522-619c156 0 298 17 298 166 0 116-89 160-192 178l145 151h110V0H623L400-264h-49v140h112V0H44v-124h100v-380H40v-115h482zM351-369h93c146 0 164-14 164-68 1-77-64-68-129-68-43 0-85 1-128 1v135" id="n"/><g id="b"><use transform="matrix(0.09999999999999996,0,0,0.09999999999999996,0,0)" xlink:href="#c"/><use transform="matrix(0.09999999999999996,0,0,0.09999999999999996,97.89999999999996,0)" xlink:href="#d"/><use transform="matrix(0.09999999999999996,0,0,0.09999999999999996,194.0999999999999,0)" xlink:href="#e"/><use transform="matrix(0.09999999999999996,0,0,0.09999999999999996,280.1999999999999,0)" xlink:href="#f"/><use transform="matrix(0.09999999999999996,0,0,0.09999999999999996,374.59999999999985,0)" xlink:href="#g"/><use transform="matrix(0.09999999999999996,0,0,0.09999999999999996,434.49999999999983,0)" xlink:href="#d"/><use transform="matrix(0.09999999999999996,0,0,0.09999999999999996,530.6999999999998,0)" xlink:href="#l"/><use transform="matrix(0.09999999999999996,0,0,0.09999999999999996,630.9999999999998,0)" xlink:href="#d"/><use transform="matrix(0.09999999999999996,0,0,0.09999999999999996,727.1999999999997,0)" xlink:href="#m"/><use transform="matrix(0.09999999999999996,0,0,0.09999999999999996,831.0999999999997,0)" xlink:href="#n"/></g></defs></g></svg>